<svg xmlns="http://www.w3.org/2000/svg" xmlns:xlink="http://www.w3.org/1999/xlink" viewBox="0 0 1440 1020.58"><defs><style>.cls-1{opacity:0.5;}.cls-2,.cls-3,.cls-4{opacity:0.31;}.cls-2{fill:url(#linear-gradient);}.cls-3{fill:url(#linear-gradient-2);}.cls-4{fill:url(#linear-gradient-3);}</style><linearGradient id="linear-gradient" x1="707.51" y1="607.2" x2="644.05" y2="1099.8" gradientUnits="userSpaceOnUse"><stop offset="0" stop-color="#91ccf0"/><stop offset="1" stop-color="#fff" stop-opacity="0"/></linearGradient><linearGradient id="linear-gradient-2" x1="718.34" y1="608.6" x2="654.88" y2="1101.19" xlink:href="#linear-gradient"/><linearGradient id="linear-gradient-3" x1="713.23" y1="607.94" x2="649.77" y2="1100.53" xlink:href="#linear-gradient"/></defs><title>wavebackground</title><g id="Layer_2" data-name="Layer 2"><g id="Layer_1-2" data-name="Layer 1"><g class="cls-1"><path class="cls-2" d="M1440,924.79v95.79H0V0C154.34,47.63,362.55,162.67,516.66,439.27c46,82.52,96.69,151.1,150.63,208.07q20.38,21.55,41.41,40.94C938.52,900.65,1217.47,924,1440,924.79Z"/><path class="cls-3" d="M1440,817.39v203.19H0V170.9C149.77,206,333.2,293.07,500.46,495.09c67.29,81.27,137.17,144.49,208.24,193.19q34.93,24,70.21,43.34C1007.25,857.66,1242.88,848.19,1440,817.39Z"/><path class="cls-4" d="M1440,858.59v162H0V90.22c152.3,41.61,344.16,141.4,506.11,373.54,51.14,73.31,105.21,133.81,161.18,183.58a856.89,856.89,0,0,0,111.62,84.28C1001,872.15,1240.94,875.4,1440,858.59Z"/></g></g></g></svg>